<svg id="Capa_1" data-name="Capa 1" xmlns="http://www.w3.org/2000/svg" viewBox="0 0 324.53086 269.27288"><defs><style>.cls-1,.cls-2{fill:#2496ed;}.cls-1{fill-rule:evenodd;}</style></defs><path class="cls-1" d="M319.11835,100.5028l-5.06824-3.38189c-5.4836-3.66714-18.07781-5.01121-27.77164-3.18334-1.24823-9.13018-6.337-17.04635-15.59272-24.20262l-5.32157-3.54847-3.55075,5.32612c-4.54568,6.855-6.81625,16.35263-6.07232,25.46A32.36175,32.36175,0,0,0,260.426,110.9451a38.271,38.271,0,0,1-18.39042,4.046H76.94848l-.324,1.90088c-1.55175,9.153-1.51752,37.71418,17.0258,59.66676,14.09575,16.6858,35.22911,25.14735,62.81132,25.14735,59.79456,0,104.0329-27.52516,124.74865-77.55743,8.14665.162,25.6859.04791,34.69741-17.16729.23278-.39478.7736-1.42852,2.34817-4.68946ZM183.84524,55.65974h25.10171V32.84H183.84524Zm0,27.38368h25.10171V60.22368H183.84524Zm-29.66565,0H179.2813V60.22368H154.17959Zm-29.66566,0h25.10171V60.22368H124.51393ZM94.84827,110.4271H119.95V87.60737H94.84827Zm29.66566,0h25.10171V87.60737H124.51393Zm29.66566,0H179.2813V87.60737H154.17959Zm29.66565,0h25.10171V87.60737H183.84524Zm29.66566,0h25.10171V87.60737H213.5109ZM71.23213,223.67a4.94774,4.94774,0,0,0-5.10021,5.09793v24.465a26.5646,26.5646,0,0,0-17.20836-6.029,26.45328,26.45328,0,0,0-19.415,8.0394,27.46323,27.46323,0,0,0,0,38.83006,26.45327,26.45327,0,0,0,19.415,8.03939,26.66663,26.66663,0,0,0,19.415-8.03939,26.25009,26.25009,0,0,0,8.03939-19.415V228.768a4.86528,4.86528,0,0,0-1.49469-3.65116A5.05955,5.05955,0,0,0,71.23213,223.67Zm-6.44885,57.63124a17.6715,17.6715,0,0,1-3.67626,5.46533,17.39,17.39,0,0,1-5.46533,3.72646,17.2311,17.2311,0,0,1-13.48418,0,17.24235,17.24235,0,0,1-5.44023-3.70136,17.47374,17.47374,0,0,1-3.65344-5.46533,17.158,17.158,0,0,1,0-13.33585,17.22217,17.22217,0,0,1,9.09367-9.169,17.25746,17.25746,0,0,1,13.48418,0A17.50467,17.50467,0,0,1,61.107,262.548a17.70862,17.70862,0,0,1,3.67626,5.4676,17.03418,17.03418,0,0,1,0,13.28565Zm63.39779-26.05785a27.46046,27.46046,0,0,0-38.82779,0A27.45442,27.45442,0,0,0,108.766,302.11288a26.66664,26.66664,0,0,0,19.415-8.03939,26.25217,26.25217,0,0,0,8.04167-19.415,28.26318,28.26318,0,0,0-2.03552-10.54044A26.927,26.927,0,0,0,128.18107,255.24343Zm-3.553,26.05785a17.67811,17.67811,0,0,1-3.67854,5.46533,17.39012,17.39012,0,0,1-5.46533,3.72646,17.22552,17.22552,0,0,1-13.4819,0,17.27841,17.27841,0,0,1-5.44252-3.70136,17.47354,17.47354,0,0,1-3.65343-5.46533,17.15793,17.15793,0,0,1,0-13.33585,17.21592,17.21592,0,0,1,9.096-9.169,17.25187,17.25187,0,0,1,13.4819,0,17.50478,17.50478,0,0,1,5.46533,3.72647,17.71524,17.71524,0,0,1,3.67854,5.4676,17.06074,17.06074,0,0,1,0,13.28565ZM156.30411,262.475a17.59853,17.59853,0,0,1,5.49043-3.67626,16.83308,16.83308,0,0,1,6.71812-1.34865,16.277,16.277,0,0,1,5.98106,1.0771,18.92831,18.92831,0,0,1,5.244,3.18792,5.19511,5.19511,0,0,0,3.334,1.17749,4.908,4.908,0,0,0,3.65344-1.47187,5.04,5.04,0,0,0,1.44677-3.67626,4.9832,4.9832,0,0,0-1.76625-3.87479,26.14869,26.14869,0,0,0-17.893-6.66565,27.45446,27.45446,0,1,0,17.893,48.24093,5.16778,5.16778,0,0,0,1.61792-3.77439,4.94425,4.94425,0,0,0-5.09793-5.10021,5.50213,5.50213,0,0,0-3.23584,1.07937,17.71017,17.71017,0,0,1-5.19605,3.16282,16.55825,16.55825,0,0,1-5.98106,1.05427,16.83308,16.83308,0,0,1-6.71812-1.34865,17.59834,17.59834,0,0,1-5.49043-3.67625,17.04508,17.04508,0,0,1-3.70136-5.46761,17.40141,17.40141,0,0,1,0-13.434A17.08508,17.08508,0,0,1,156.30411,262.475Zm84.2071-10.173a4.73183,4.73183,0,0,0-.41531-1.96022,5.69651,5.69651,0,0,0-1.10448-1.643,4.91546,4.91546,0,0,0-1.61792-1.10448,5.15083,5.15083,0,0,0-2.01041-.39022,5.00486,5.00486,0,0,0-2.74522.78272l-29.31652,19.07274V228.81817a4.97607,4.97607,0,0,0-1.497-3.65344,4.91433,4.91433,0,0,0-3.60324-1.49469,5.10763,5.10763,0,0,0-5.14812,5.14813v68.14658a4.98956,4.98956,0,0,0,1.497,3.62834,4.91958,4.91958,0,0,0,3.65115,1.51979,4.86812,4.86812,0,0,0,3.60324-1.51979,4.98956,4.98956,0,0,0,1.497-3.62834v-17.699l5.98106-3.92043,22.65086,25.444a4.7384,4.7384,0,0,0,3.42982,1.32354,5.11105,5.11105,0,0,0,2.01041-.3925,4.808,4.808,0,0,0,1.61792-1.10219,5.66573,5.66573,0,0,0,1.10448-1.643,4.73186,4.73186,0,0,0,.41531-1.96022,5.19124,5.19124,0,0,0-1.42167-3.58041l-21.08087-23.728L238.551,256.37072A4.57084,4.57084,0,0,0,240.51121,252.302Zm51.511,2.94146a27.457,27.457,0,1,0-19.415,46.86945,26.33049,26.33049,0,0,0,17.94315-6.66792,5.08381,5.08381,0,0,0,1.47187-3.67626,4.95135,4.95135,0,0,0-5.10021-5.10022,5.37732,5.37732,0,0,0-3.38188,1.27563,16.27112,16.27112,0,0,1-5.00209,2.94146,17.22092,17.22092,0,0,1-5.93084.98125,17.03072,17.03072,0,0,1-5.4699-.88312,17.62086,17.62086,0,0,1-4.80355-2.47594,17.10851,17.10851,0,0,1-3.7972-3.82459,16.62744,16.62744,0,0,1-2.45084-4.92678h38.82778a5.054,5.054,0,0,0,3.65116-1.44677,4.86369,4.86369,0,0,0,1.497-3.65116,27.52541,27.52541,0,0,0-2.01041-10.56554A26.73646,26.73646,0,0,0,292.0222,255.24343Zm-35.93651,14.31482a15.89815,15.89815,0,0,1,2.40063-4.92678,17.03611,17.03611,0,0,1,3.82459-3.82459,18.04755,18.04755,0,0,1,4.85376-2.47594,17.14118,17.14118,0,0,1,5.44251-.88085,16.9127,16.9127,0,0,1,5.41512.88085,17.53963,17.53963,0,0,1,8.62814,6.30053,16.45273,16.45273,0,0,1,2.47822,4.92678Zm88.54059-18.92441a9.7373,9.7373,0,0,0-3.45493-2.08344,20.3968,20.3968,0,0,0-4.55939-1.05427,39.39893,39.39893,0,0,0-4.63466-.2921,26.77832,26.77832,0,0,0-9.2169,1.56772,28.13611,28.13611,0,0,0-7.99147,4.51146V252.302a5.10323,5.10323,0,0,0-5.098-5.09794,5.10355,5.10355,0,0,0-5.14812,5.09794v44.713a5.12305,5.12305,0,0,0,10.24607,0V274.65846a16.88093,16.88093,0,0,1,1.34862-6.71813,17.1414,17.1414,0,0,1,9.14388-9.14159,16.8142,16.8142,0,0,1,6.71587-1.34865,18.06334,18.06334,0,0,1,6.71813,1.22543,5.44893,5.44893,0,0,0,2.15645.53854,5.08678,5.08678,0,0,0,2.01041-.3925,4.83062,4.83062,0,0,0,1.61791-1.10219,5.67369,5.67369,0,0,0,1.1022-1.643A4.84248,4.84248,0,0,0,346,254.06593,4.56029,4.56029,0,0,0,344.62628,250.63384Z" transform="translate(-21.46914 -32.84)"/><path class="cls-2" d="M325.91406,299.827a2.19123,2.19123,0,1,1-2.18359-2.13184A2.14257,2.14257,0,0,1,325.91406,299.827Zm-3.835,0a1.65188,1.65188,0,0,0,1.66406,1.70312,1.63261,1.63261,0,0,0,1.625-1.68945,1.6458,1.6458,0,1,0-3.28906-.01367Zm1.31348,1.11816h-.49414v-2.13184a4.29681,4.29681,0,0,1,.81836-.06543,1.33,1.33,0,0,1,.74121.15625.58987.58987,0,0,1,.208.46778.54561.54561,0,0,1-.44141.49414v.02637a.62918.62918,0,0,1,.38965.51953,1.59427,1.59427,0,0,0,.15625.5332h-.53321a1.7896,1.7896,0,0,1-.16894-.52051c-.03906-.2334-.16895-.33789-.44238-.33789h-.2334Zm.01269-1.209h.2334c.27344,0,.49414-.09082.49414-.31153,0-.19531-.14258-.32617-.45508-.32617a1.12115,1.12115,0,0,0-.27246.02734Z" transform="translate(-21.46914 -32.84)"/></svg>