<?xml version="1.0" encoding="utf-8"?>
<svg viewBox="212.609 116.247 279.32 279.177" xmlns="http://www.w3.org/2000/svg">
  <defs>
    <style>
      .cls-1{fill:#2671e5}.cls-2{fill:#2671e5}
    </style>
  </defs>
  <path d="M483.881 237.58a39.137 39.137 0 00-62.28-3.376 41.039 41.039 0 00-6.63 9.563 49.903 49.903 0 00-3.996 10.563h-24.07a9.71 9.71 0 01-1.144-2.867c-3.275-12.86-11.301-22.055-23.473-27.123-23.433-9.759-48.868 3.186-55.421 27.865-.43 1.621-.11 3.456-2.853 3.833-11.36 1.562-24.183-4.938-29.567-15.308-3.63-6.992-3.438-7.6 4.365-8.58 32.39-4.068 58.84-36.956 47.644-75.096-8.112-27.633-38.396-45.567-66.762-39.691-26.74 5.539-45.62 27.835-47.019 55.526-1.286 25.474 16.333 49.822 41.917 57.39 3.855 1.14 4.726 2.846 4.707 6.546-.132 25.827-.25 51.658.032 77.483.262 23.886 17.783 43.331 41.26 45.85 4.424.474 5.92 2.036 7.03 6.142 4.373 16.193 18.915 27.711 35.85 28.995a40.294 40.294 0 0039.564-22.76c10.35-22.187.098-47.524-22.627-55.92-22.509-8.316-47.004 4.575-53.217 28.333-1.064 4.065-2.849 4.315-6.247 3.752-17.443-2.887-29.555-16.785-30.042-34.916-.196-7.28-.047-14.569-.049-21.854-.003-11.54 0-23.082 0-35.953 5.617 4.306 10.347 7.546 15.909 9.432a47.513 47.513 0 0017.137 2.175c2.793-.097 2.56 2.004 2.998 3.65 2.997 11.253 9.314 20.03 19.495 25.814a40.424 40.424 0 0059.324-24.943 9.115 9.115 0 011.16-2.806h24.472a21.595 21.595 0 00.83 3.902c5.055 18.2 21.745 29.802 40.829 29.154 15.31-.52 32.563-10.16 37.839-31.702a39.483 39.483 0 00-6.965-33.074zm-137.332 88.318a28.734 28.734 0 0129.008 28.961 29.05 29.05 0 11-29.008-28.961zm-121.91-151.642a46.362 46.362 0 0192.722.162 46.362 46.362 0 11-92.722-.162zM346.35 290.741a28.937 28.937 0 1129.201-28.79 28.905 28.905 0 01-29.201 28.79zm92.052-2.865a29.153 29.153 0 1112.849 2.863c-.27 0-.538-.011-.807-.018a30.97 30.97 0 01-12.042-2.846z" class="cls-2"/>
  <path d="M294.843 164.745q-14.279-9.423-28.954-18.242c-8.629-5.211-17.92.049-18.163 10.144-.144 5.951-.027 11.908-.02 17.862.008 6.12-.108 12.242.034 18.358.221 9.49 9.328 14.937 17.464 10.2q14.995-8.73 29.53-18.243c8.064-5.274 8.084-14.817.11-20.08zm-7.926 11.34q-12.462 7.702-24.912 15.42c-1.44.892-2.553.979-2.557-1.16-.018-11.038-.008-22.075-.008-34.158 9.734 6.116 18.644 11.706 27.542 17.315 1.347.85 1.308 1.735-.065 2.584zm47.866 184.431c3.523-.23 5.671-2.22 5.806-5.526a5.201 5.201 0 00-5.372-5.778c-3.687-.141-5.9 1.914-5.953 5.651-.051 3.57 2.212 5.217 5.519 5.653zm23.595-.07c3.407-.504 5.59-2.332 5.408-5.895-.178-3.504-2.4-5.497-5.896-5.334-3.466.162-5.595 2.311-5.45 5.807.146 3.5 2.46 5.218 5.938 5.422zm107.903-101.904c1.329-1.325 2.4-2.75 2.253-4.912a5.076 5.076 0 00-3.14-5.03 5.296 5.296 0 00-6.411 1.039 115.808 115.808 0 00-8.774 8.772c-3.136 3.684-5.719 5.414-9.562.63-2.26-2.812-5.677-2.757-8.302-.012-2.467 2.578-2.068 5.508.209 8.022 2.44 2.696 5.047 5.255 7.704 7.741 3.677 3.44 6.177 3.447 9.85-.122 5.461-5.304 10.782-10.752 16.173-16.128zm-105.249-9.824a5.26 5.26 0 00-6.45.71 109.979 109.979 0 00-8.5 8.311c-3.257 3.65-6.041 6.508-10.407 1.042-2.133-2.672-5.475-2.296-7.91.19-2.486 2.536-2.231 5.45.092 7.985 2.566 2.8 5.333 5.416 8.038 8.084 3.234 3.19 6.403 2.874 9.505-.23q8.057-8.066 16.131-16.116c1.44-1.436 2.675-2.957 2.451-5.134a5.152 5.152 0 00-2.95-4.842z" class="cls-2"/>
</svg>